<svg xmlns="http://www.w3.org/2000/svg" width="200" height="37" viewBox="0 0 200 37">
    <g fill="none" fill-rule="evenodd">
        <g fill-rule="nonzero">
            <g>
                <g>
                    <g fill="#327710">
                        <path d="M28.979 36.628c-2.504 0-4.675-.574-6.513-1.723-1.839-1.15-3.249-2.692-4.232-4.63-.982-1.936-1.473-4.07-1.473-6.4 0-2.331.49-4.482 1.473-6.451.983-1.97 2.393-3.53 4.232-4.678 1.838-1.15 4.01-1.724 6.513-1.724 2.504 0 4.675.575 6.513 1.724 1.839 1.149 3.249 2.708 4.232 4.678.982 1.97 1.473 4.12 1.473 6.45 0 2.331-.49 4.465-1.473 6.402-.983 1.937-2.393 3.48-4.232 4.629-1.838 1.149-4.01 1.723-6.513 1.723zm0-5.023c1.933 0 3.447-.705 4.54-2.117 1.094-1.412 1.64-3.283 1.64-5.614 0-2.363-.546-4.26-1.64-5.687-1.093-1.428-2.607-2.142-4.54-2.142-1.933 0-3.447.714-4.54 2.142-1.094 1.428-1.64 3.324-1.64 5.687 0 2.331.546 4.202 1.64 5.614 1.093 1.412 2.607 2.117 4.54 2.117zM54.544 36.628c-2.504 0-4.675-.574-6.514-1.723-1.838-1.15-3.248-2.692-4.23-4.63-.983-1.936-1.475-4.07-1.475-6.4 0-2.331.492-4.482 1.474-6.451.983-1.97 2.393-3.53 4.231-4.678 1.839-1.15 4.01-1.724 6.514-1.724 2.504 0 4.675.575 6.513 1.724s3.249 2.708 4.231 4.678c.983 1.97 1.474 4.12 1.474 6.45 0 2.331-.491 4.465-1.474 6.402-.982 1.937-2.393 3.48-4.231 4.629-1.838 1.149-4.01 1.723-6.513 1.723zm0-5.023c1.933 0 3.447-.705 4.54-2.117 1.094-1.412 1.64-3.283 1.64-5.614 0-2.363-.546-4.26-1.64-5.687-1.093-1.428-2.607-2.142-4.54-2.142-1.934 0-3.447.714-4.54 2.142-1.094 1.428-1.64 3.324-1.64 5.687 0 2.331.546 4.202 1.64 5.614 1.093 1.412 2.606 2.117 4.54 2.117zM88.048.057c.782 0 1.532.31 2.084.863.553.553.864 1.303.864 2.085v31.121c0 .688-.274 1.348-.76 1.834-.486.487-1.146.76-1.834.76h-.808c-1.208 0-2.203-.952-2.256-2.16-.92.69-1.878 1.206-2.876 1.551-.999.345-2.18.517-3.542.517-2.314 0-4.303-.574-5.967-1.723-1.664-1.15-2.924-2.692-3.78-4.63-.855-1.936-1.283-4.07-1.283-6.4 0-2.331.428-4.465 1.284-6.402.855-1.937 2.115-3.48 3.78-4.629 1.663-1.149 3.652-1.723 5.966-1.723s4.374.656 6.18 1.97V3.004c0-1.628 1.32-2.948 2.948-2.948zm-8.272 31.548c1.87 0 3.272-.689 4.207-2.068s1.403-3.266 1.403-5.663c0-2.396-.468-4.284-1.403-5.662-.935-1.38-2.337-2.069-4.207-2.069-1.839 0-3.273.706-4.303 2.118-1.03 1.411-1.545 3.283-1.545 5.613 0 2.331.515 4.202 1.545 5.614 1.03 1.412 2.464 2.117 4.303 2.117zM4.353 16.333H2.64c-.736 0-1.438-.313-1.929-.86-.492-.548-.727-1.28-.648-2.011v-.001c.13-1.184 1.128-2.08 2.319-2.08h1.97V7.569c0-2.33.645-4.165 1.932-5.503C7.57.726 9.404.057 11.782.057c.563 0 1.307.028 2.077.084.77.06 1.482.428 1.976 1.02.494.593.728 1.36.649 2.128-.003.103-.014.206-.024.307-.118 1.14-1.112 1.986-2.256 1.92-.354-.025-.678-.034-.906-.034-1.923 0-2.884 1.078-2.884 3.235v2.664h4.032c1.367 0 2.475 1.108 2.475 2.475v.001c0 1.368-1.108 2.476-2.475 2.476h-4.032v17.363c0 1.674-1.357 3.03-3.03 3.03-1.674 0-3.031-1.356-3.031-3.03V16.333z" transform="translate(-620 -634) translate(0 634) translate(620)"/>
                    </g>
                    <g fill="#ED762C">
                        <path d="M19.989 36.156c-1.154 0-2.09-.935-2.09-2.089V12.825c0-1.038.843-1.88 1.88-1.88h.002c1.038 0 1.88.842 1.88 1.88v2.415c.959-1.749 1.845-2.902 2.658-3.459.812-.557 1.706-.836 2.68-.836.67 0 1.343.102 2.022.304.61.17 1.122.587 1.41 1.152.289.564.328 1.224.107 1.818l.036.014c-.359.965-1.388 1.505-2.386 1.25-.46-.156-.929-.22-1.397-.22-.913 0-1.734.275-2.46.824-.728.55-1.247 1.312-1.556 2.287-.465 1.486-.697 3.11-.697 4.875v10.818c0 1.154-.935 2.089-2.088 2.089h-.001zM34.199 8.462c-1.154 0-2.09-.935-2.09-2.088V6.31c0-1.154.936-2.089 2.09-2.089s2.09.935 2.09 2.089v.064c0 1.153-.936 2.088-2.09 2.088zm0 27.694c-1.154 0-2.09-.935-2.09-2.089v-21.04c0-1.153.936-2.088 2.09-2.088s2.09.935 2.09 2.088v21.04c0 1.154-.936 2.089-2.09 2.089zM56.262 29.226c.332-.585.984-.912 1.651-.83l.004-.03c.83.103 1.547.626 1.899 1.384.351.758.287 1.643-.17 2.342-.684.97-1.47 1.824-2.407 2.532-1.842 1.393-4.194 2.089-7.057 2.089-3.606 0-6.465-1.11-8.578-3.331-2.112-2.221-3.168-5.336-3.168-9.344 0-4.147 1.067-7.366 3.203-9.657 2.136-2.29 4.906-3.436 8.31-3.436 3.297 0 5.99 1.122 8.08 3.366 2.088 2.244 3.133 5.402 3.133 9.472v.097c-.003.562-.46 1.017-1.021 1.017H42.753c.155 2.708.921 4.218 2.299 5.657 1.377 1.44 3.095 2.16 5.153 2.16 1.532 0 2.84-.403 3.923-1.208.85-.63 1.56-1.21 2.134-2.28zm-13.277-8.329h13.766c-.185-2.073-.712-3.065-1.578-4.102-1.331-1.61-3.057-2.414-5.177-2.414-1.919 0-3.501.675-4.84 1.927-.521.487-2.031 2.438-2.17 4.59zM64.713 36.156c-1.154 0-2.09-.935-2.09-2.089V13.382c0-1.038.842-1.88 1.88-1.88h.002c1.038 0 1.88.842 1.88 1.88v1.626c1.81-2.708 4.426-4.063 7.846-4.063 1.485 0 2.851.267 4.097.801 1.246.534 2.178 1.235 2.797 2.101.62.867 1.053 1.896 1.3 3.088.155.773.232 2.128.232 4.062v13.07c0 1.154-.935 2.089-2.088 2.089h-.001c-1.154 0-2.089-.935-2.089-2.089V21.16c0-1.703-.163-2.976-.488-3.82-.325-.843-.901-1.516-1.729-2.019-.828-.503-1.8-.754-2.913-.754-1.78 0-3.316.565-4.608 1.694-1.293 1.13-1.939 3.274-1.939 6.43v11.376c0 1.154-.935 2.089-2.088 2.089h-.001zM104.258 36.72c-1.077 0-1.95-.873-1.95-1.95v-1.16c-1.563 2.444-3.861 3.103-6.894 3.103-1.966 0-3.773-.542-5.421-1.625-1.648-1.083-2.925-2.596-3.83-4.538-.906-1.943-1.358-4.175-1.358-6.698 0-2.46.41-4.693 1.23-6.697.82-2.004 2.05-3.54 3.691-4.608 1.64-1.068 3.474-1.602 5.502-1.602 1.486 0 2.809.314 3.97.94 1.16.627 2.104 1.444 2.832 2.45l.24-12.344C102.29.885 103.193 0 104.3 0c.573 0 1.121.228 1.524.635.403.406.627.956.623 1.528l-.247 32.63c-.009 1.067-.875 1.927-1.941 1.927zM89.1 23.852c0 3.158.666 5.518 1.997 7.08 1.33 1.564 2.902 2.345 4.712 2.345 1.826 0 3.378-.746 4.655-2.24 1.276-1.493 1.915-3.772 1.915-6.836 0-3.374-.65-5.85-1.95-7.429-1.3-1.578-2.902-2.368-4.806-2.368-1.857 0-3.408.759-4.654 2.275-1.246 1.517-1.869 3.908-1.869 7.173zM4.171 15.05H1.874c-.53 0-1.033-.235-1.375-.64-.34-.407-.485-.943-.394-1.465v-.001c.15-.854.89-1.477 1.757-1.477h2.31V7.984c0-2.286.617-4.7 1.851-6.013C7.258.657 9.04 0 11.37 0c.569 0 1.114.03 1.635.092.64.078 1.22.418 1.6.939.381.52.53 1.176.41 1.81l.015.003c-.163.869-.98 1.456-1.856 1.336-.351-.06-.71-.085-1.074-.085-2.156 0-3.234 1.808-3.234 4.196v3.176h5.095c.475 0 .93.189 1.266.525.336.335.525.79.525 1.266v.001c0 .475-.189.93-.525 1.266-.335.336-.79.525-1.266.525H8.866V34.2c0 .622-.247 1.219-.687 1.66-.44.44-1.038.687-1.66.687-.623 0-1.22-.248-1.66-.688-.44-.44-.688-1.037-.688-1.66V15.05z" transform="translate(-620 -634) translate(0 634) translate(620) translate(93.234)"/>
                    </g>
                </g>
            </g>
        </g>
    </g>
</svg>
